<svg width="66" height="19" viewBox="0 0 66 19" fill="none" xmlns="http://www.w3.org/2000/svg">
<path d="M10.0474 18.0996C13.6188 18.0996 16.8781 16.0539 18.3344 13.0373L13.7575 10.6101C13.0987 12.1011 11.8157 13.2106 10.0474 13.2106C7.86295 13.2106 6.0946 11.5116 6.0946 9.0498C6.0946 6.58797 7.86295 4.88897 10.0474 4.88897C11.8157 4.88897 13.0987 5.99852 13.7575 7.48949L18.3344 5.06234C16.8781 2.04574 13.6188 0 10.0474 0C4.95037 0 0.824219 3.77942 0.824219 9.0498C0.824219 14.3202 4.95037 18.0996 10.0474 18.0996Z" fill="#30CD8A"/>
<path d="M41.1032 17.7182H46.3389V7.83622C46.3389 2.98193 44.0158 0 39.751 0C37.9133 0 35.5208 0.936186 34.4112 3.05127C33.3364 1.10955 31.568 0 29.0715 0C26.9911 0 25.5695 0.936186 24.6333 2.14976V0.38141H19.3976V17.7182H24.6333V9.29251C24.6333 6.10254 25.9162 4.75028 27.7539 4.75028C29.5223 4.75028 30.2504 6.20656 30.2504 8.73773V17.7182H35.4861V9.08447C35.5901 6.06787 36.8037 4.75028 38.6067 4.75028C40.3751 4.75028 41.1032 6.20656 41.1032 8.73773V17.7182Z" fill="#30CD8A"/>
<path d="M55.6845 18.0996C58.0423 18.0996 59.6373 16.9207 60.4001 15.9845V17.7182H65.6358V0.38141H60.4001V2.11509C59.6373 1.1789 58.0423 0 55.6845 0C51.1423 0 47.6403 4.16083 47.6403 9.0498C47.6403 13.9388 51.1423 18.0996 55.6845 18.0996ZM56.8634 13.3493C54.5056 13.3493 52.9107 11.5463 52.9107 9.0498C52.9107 6.5533 54.5056 4.75028 56.8634 4.75028C59.2212 4.75028 60.8162 6.5533 60.8162 9.0498C60.8162 11.5463 59.2212 13.3493 56.8634 13.3493Z" fill="#30CD8A"/>
</svg>
