<?xml version="1.0" encoding="utf-8"?>
<!-- Generator: Adobe Illustrator 24.0.1, SVG Export Plug-In . SVG Version: 6.00 Build 0)  -->
<svg version="1.1" id="Layer_1" xmlns="http://www.w3.org/2000/svg" xmlns:xlink="http://www.w3.org/1999/xlink" x="0px" y="0px"
	 viewBox="0 0 282 36.2" style="enable-background:new 0 0 282 36.2;" xml:space="preserve">
<style type="text/css">
	.st0{fill:#00A997;}
</style>
<path class="st0" d="M40.7,0v31.6H62c8.6,0,10.9-6,10.9-9.5c0-3.8-1.7-6.4-5-7.7c1.6-0.8,3.6-2.4,3.6-6.4c0-3.7-1.6-8.1-9.2-8.1
	H40.7z M60,26H47.9V5.6h11.4c4,0,4.9,1.3,4.9,3.2c0,2.9-1.9,3.1-3.7,3.4c0,0-0.3,0-0.4,0h-4.1L50,18.3h10.9c2,0,4.4,0.6,4.4,3.7
	C65.4,25.3,63.3,26,60,26z M78.9,0v31.6h22.4l6.4-6.4H86.1V0H78.9z M32.8,0v31.6h-7.3V18.4H9.3l6.3-6.4h9.8V0H32.8z M7.3,31.6H0V0
	h7.3V31.6z"/>
<path class="st0" d="M128.8,0h-2.2v9.5h2.2V0z"/>
<path class="st0" d="M138.1,3.7c-0.2-1.3-1.3-2-2.6-2c-2.2,0-2.9,1.8-2.9,3s0.7,3,2.9,3c1.3,0,2.5-0.6,2.7-2h2.3
	c-0.3,2.6-2.5,3.7-5,3.7c-2.8,0-5-1.9-5-4.8c0-2.9,2.1-4.8,5-4.8c2,0,4,0.8,4.9,3.1L138.1,3.7z"/>
<path class="st0" d="M160.8,3.5c-0.2-1.3-1.6-1.7-2.8-1.7c-2.2,0-2.9,1.8-2.9,3s0.7,3,2.9,3c1.3,0,2.6-0.4,2.9-1.9l2.1-0.1
	c-0.3,2.6-2.5,3.7-5,3.7c-2.8,0-5-1.9-5-4.8c0-2.9,2.1-4.8,5-4.8c2,0,4,0.8,4.9,3.1L160.8,3.5z"/>
<path class="st0" d="M155.2,6.1c0.2,1.3,1.6,1.8,2.8,1.8c2.2,0,2.9-1.8,2.9-3s-0.7-3-2.9-3c-1.3,0-2.6,0.6-2.8,2h-2.1
	c0.3-2.6,2.5-3.7,5-3.7c2.8,0,5,1.9,5,4.8c0,2.9-1.8,4.8-5,4.8c-2,0-4-0.8-4.9-3.1L155.2,6.1z"/>
<path class="st0" d="M117.9,9.6l-2.7-6.4h0v6.4h-2.2V0h2.9l3,6.9l3-6.9h2.9v9.6h-2.2V3.2h0l-2.7,6.4H117.9z"/>
<path class="st0" d="M149.7,9.6l-0.2-1.8c-0.1-1.4-0.8-1.7-1.5-1.7h-3.2l1.1-1.8h2.2c0.6,0,1.2-0.3,1.2-1.2c0-1-0.7-1.3-1.3-1.3
	h-3.6v7.8h-2.2V0h6.4c2.1,0,3,1.6,3,2.6c0,1.2-0.5,2-1.4,2.4c1.1,0.5,1.5,1.4,1.6,2.5l0.2,2.1H149.7z"/>
<path class="st0" d="M177,0h-2.2v9.5h2.2V0z"/>
<path class="st0" d="M186.1,0h2.2v9.5h-2.5l-4.9-6.7h0v6.7h-2.2V0h2.6l4.7,6.6h0V0z"/>
<path class="st0" d="M167,7.8V5.6h4.4l1.1-1.8H167v-2h5.4l1-1.8h-8.6v9.5h2.2V7.8z"/>
<path class="st0" d="M200.3,9.6h-2.6l-0.7-2h-3.7l1-1.7h2l-1.4-3.8l-2.8,7.5h-2.6l4-9.5h2.8L200.3,9.6z"/>
<path class="st0" d="M220.1,3.7c-0.2-1.3-1.4-2-2.6-2c-2.2,0-3,1.8-3,3c0,1.2,0.7,3,3,3c1.3,0,2.5-0.6,2.7-2h2.3
	c-0.3,2.6-2.6,3.7-5.1,3.7c-2.9,0-5.1-1.9-5.1-4.8c0-2.9,2.2-4.8,5.1-4.8c2.1,0,4.1,0.8,5,3L220.1,3.7z"/>
<path class="st0" d="M226.2,7.8V5.6h4.4l1.1-1.8h-5.5v-2h5.4l1-1.8H224v9.5h7.6l1-1.8H226.2z"/>
<path class="st0" d="M208.8,0h2.2v9.5h-2.4l-4.9-6.7h0v6.7h-2.2V0h2.6l4.7,6.6h0V0z"/>
<path class="st0" d="M267.3,0h2.2v9.5H267l-4.9-6.6h0v6.6h-2.2V0h2.6l4.7,6.6h0V0z"/>
<path class="st0" d="M277.5,0h3.2l-4.1,3.8l4.4,5.7h-3.2l-3-4.2l-1.4,1.3v2.9H271V0h2.3v4.1L277.5,0z"/>
<path class="st0" d="M258.9,9.6h-2.5l-0.7-2H252l1-1.7h2l-1.4-3.8l-2.8,7.5h-2.6l3.9-9.5h2.8L258.9,9.6z"/>
<path class="st0" d="M246.3,4.4c0.5-0.3,1.1-0.7,1.1-1.9c0-1.1-0.5-2.4-2.7-2.4h-6.3v9.5h6.2c2.6,0,3.2-1.8,3.2-2.9
	C247.8,5.6,247.3,4.8,246.3,4.4z M243.9,7.8h-3.4V1.7h3.2c1.2,0,1.5,0.4,1.5,1c0,0.9-0.6,1-1.1,1l-0.1,0h-2l-1,1.8h3.3
	c0.6,0,1.3,0.2,1.3,1.1C245.6,7.6,244.9,7.8,243.9,7.8z"/>
<path class="st0" d="M187.7,31.8h-8.8c0,1.1-0.4,2.1-1.2,2.9c-0.8,0.8-1.8,1.3-3,1.3c-1.1,0-2.1-0.3-2.9-0.9
	c-0.9-0.7-1.3-1.5-1.3-2.6c0-1.3,0.4-2.2,1.3-2.5c0.1,0.6,0.2,1.1,0.2,1.7c0.1,0.7,0.3,1.1,0.6,1.5c0.4,0.4,0.9,0.6,1.6,0.6
	c0.6,0,1.1-0.2,1.6-0.5c0.4-0.4,0.6-0.9,0.6-1.7c0-0.2,0-0.5,0-1c0-0.4,0-0.7,0-0.9c0-0.5,0.1-0.9,0.2-1.2c0.2-0.4,0.5-0.7,1.1-0.9
	c0.5-0.2,0.9-0.4,1.3-0.6v2.4h1.6c0-0.2,0-0.5,0-0.8c0-0.3,0-0.5,0-0.6c0-0.5,0.1-0.8,0.4-1c0.1-0.1,0.7-0.4,1.8-0.9v3.4h1.5V27
	c0-0.5,0.2-0.8,0.5-1l1.6-0.8v4.1h1.5L187.7,31.8L187.7,31.8z"/>
<path class="st0" d="M193.7,31.8h-8.9l1.5-2.4h5.3l0-0.3c0-0.5,0-4.3,0-4.5c0.1-0.2,0.3-0.4,0.6-0.6l1.5-0.9v6.3h0L193.7,31.8
	L193.7,31.8z"/>
<path class="st0" d="M201.5,31.8h-4.7V17.9c0.5,0.3,1,0.6,1.4,0.9c0.5,0.4,0.7,0.8,0.7,1.4v9.2h2.6V31.8z"/>
<path class="st0" d="M207.5,31.1c0,0.2-0.1,0.4-0.2,0.5c-0.2,0.1-0.4,0.2-0.6,0.2h-8.1l1.5-2.4h5.3c0-0.6,0-0.9,0-1
	c0.1-0.3,0.3-0.5,0.6-0.8l1.5-0.9L207.5,31.1L207.5,31.1z"/>
<path class="st0" d="M217,30.2c0,0.3,0,0.7-0.2,0.9c-0.1,0.4-0.4,0.6-0.6,0.6H206l1.5-2.4h7.4v-1.5h-2.1c-0.5,0-1-0.2-1.4-0.7
	c-0.4-0.4-0.5-0.9-0.5-1.5c0-0.7,0.2-1.2,0.6-1.7c0.4-0.5,1-0.7,1.8-0.7c0.2,0,0.4,0,0.7,0s0.6,0,0.7,0c1,0,1.8-0.3,2.3-0.9
	L217,30.2L217,30.2z M214.9,26.1v-1.3h-1.3c-0.5,0-0.7,0.2-0.7,0.7c0,0.4,0.2,0.6,0.7,0.6H214.9z"/>
<path class="st0" d="M225.7,33.5c0,0.8-0.3,1.4-0.9,1.9c-0.6,0.4-1.3,0.7-2.1,0.7c-0.7,0-1.5-0.2-2.2-0.7c-0.5-0.3-0.8-0.9-0.9-1.8
	h4v-1.7h-4v-2.2c0-1.9,0.7-3.2,2-4.1c0.3-0.2,0.9-0.4,1.6-0.5c0.7-0.1,1.2-0.2,1.4-0.3l1.1-0.6L225.7,33.5L225.7,33.5z M223.6,29.3
	v-2.1c-0.5,0-0.9,0.2-1.3,0.5c-0.4,0.4-0.6,0.8-0.6,1.2c0,0.1,0,0.2,0,0.3H223.6z"/>
<path class="st0" d="M232.1,33.7c0,0.7-0.2,1.3-0.7,1.7c-0.5,0.4-1,0.6-1.8,0.6c-0.7,0-1.4-0.2-1.9-0.6c-0.5-0.4-0.8-1-0.9-1.7h2.7
	v-3.5c0-0.7,0.2-1.3,0.7-1.6c0.1-0.1,0.7-0.4,1.8-0.9V33.7z"/>
<path class="st0" d="M250.2,30.8c0,0.7-0.4,1-1.1,1h-17.7l0.8-2.4h15.8v-1.1c0-0.3-0.2-0.5-0.5-0.7c-0.3-0.1-0.6-0.2-0.9-0.2h-10.3
	c-0.1-0.2-0.1-0.4-0.1-0.6c0-0.6,0.2-1,0.5-1.2l11.6-5.1l-0.3,0.7l-5.2,2.7c-0.2,0.1-0.4,0.2-0.6,0.3c-0.3,0.1-0.4,0.3-0.4,0.5
	c0,0.2,0.1,0.3,0.2,0.5c0.1,0.1,0.3,0.2,0.5,0.2h5.3c0.6,0,1.1,0.2,1.5,0.6c0.4,0.3,0.6,0.5,0.6,0.6c0.1,0.1,0.1,0.4,0.1,0.9
	L250.2,30.8L250.2,30.8z"/>
<path class="st0" d="M258.6,30.8c0,0.3-0.1,0.5-0.4,0.7c-0.3,0.2-0.5,0.3-0.8,0.3h-8.8l1.5-2.4h6.4c0-1.3,0.1-2.1,0.2-2.3
	c0.1-0.2,0.8-0.7,1.9-1.5L258.6,30.8L258.6,30.8z"/>
<path class="st0" d="M266.1,31.1c0,0.2-0.1,0.4-0.2,0.5c-0.2,0.1-0.4,0.2-0.6,0.2h-8.1l1.5-2.4h5.3c0-0.6,0-0.9,0-1
	c0.1-0.3,0.3-0.5,0.6-0.8l1.5-0.9L266.1,31.1L266.1,31.1z M266.1,23.5h-3.5v-1h0.8c-0.4-0.2-0.6-0.5-0.6-1c0-0.3,0.1-0.5,0.3-0.8
	c0.2-0.2,0.5-0.3,0.8-0.3h2.2v1h-1.6c-0.2,0-0.3,0.1-0.3,0.3c0,0.5,0.3,0.8,1,0.8c0.1,0,0.2,0,0.4,0c0.2,0,0.3,0,0.4,0V23.5z"/>
<path class="st0" d="M275.8,31.8h-6.5V17.9c0.5,0.3,1,0.6,1.4,0.9c0.5,0.4,0.7,0.8,0.7,1.4v9.2h4.4L275.8,31.8L275.8,31.8z"/>
<path class="st0" d="M281,30.2c0,0.4-0.1,0.7-0.2,1c-0.2,0.4-0.4,0.6-0.7,0.6h-5.8v-2.4c0-1.4,0.6-2.6,1.7-3.5
	c0.4-0.3,0.9-0.5,1.5-0.6c0.6-0.1,1.1-0.1,1.7-0.2c0.7-0.2,1.3-0.5,1.9-1V30.2z M278.8,29.3v-2c-0.2-0.1-0.4-0.1-0.6-0.1
	c-0.5,0-0.9,0.2-1.3,0.6c-0.4,0.4-0.6,0.8-0.6,1.3c0,0.1,0,0.2,0,0.2L278.8,29.3L278.8,29.3z"/>
<path class="st0" d="M144.8,24.7l1.4-2.3H143l-1.4,2.3H144.8z"/>
<path class="st0" d="M151,36.2l1.4-2.3h-3.1l-1.4,2.3H151z"/>
<path class="st0" d="M155.5,36.2l1.4-2.3h-3.1l-1.4,2.3H155.5z"/>
<path class="st0" d="M162.4,36.2l1.4-2.3h-3.1l-1.4,2.3H162.4z"/>
<path class="st0" d="M152.3,18.1H138l-2.4,2.3H150L152.3,18.1z"/>
<path class="st0" d="M126.2,29.4h9.7v-8.4h2.4v8.4h9.8v-1.8l2.4-2.3v4.1h5.4v-1.8l2.3-2.3v4.1h5.4v-1.8l2.3-2.3v4.1l-2.6,2.4h-37.2
	H124h-10.8l-0.1-2.4v-1.8l2.3-2.3v4.1h11.2"/>
<path class="st0" d="M193.2,22.8l1.3-2.2h-2.9l-1.3,2.2H193.2z"/>
<path class="st0" d="M207,23.7l1.3-2.2h-2.9l-1.3,2.2H207z"/>
<path class="st0" d="M214.7,20.5l1.3-2.2h-2.9l-1.3,2.2H214.7z"/>
<path class="st0" d="M253.2,35.9l1.3-2.2h-2.9l-1.3,2.2H253.2z"/>
<path class="st0" d="M257.6,35.9l1.3-2.2H256l-1.3,2.2H257.6z"/>
</svg>
