<?xml version="1.0" encoding="UTF-8"?>
<svg id="Layer_1" xmlns="http://www.w3.org/2000/svg" viewBox="0 0 300.58 84.78">
  <defs>
    <style>
      .cls-1 {
        fill: #093;
      }

      .cls-2 {
        fill: #006;
      }
    </style>
  </defs>
  <path class="cls-2" d="M249.8,37.07h-9.63v15.94c0,4.54,2.39,5.38,5.49,5.38,1.08,0,2.24-.15,3.42-.31l.72,7.14c-2.52.45-5.89.83-8.07.83-6.64,0-12.53-2.31-12.53-10.45v-18.53h-5.59v-7.04h5.59v-7.76l10.97-3.1v10.87h9.63v7.04Z"/>
  <path class="cls-2" d="M220.28,65.32h-10.97v-22.67c0-3.33-1.41-5.18-5.18-5.18-2.84,0-4.67,1.36-6.73,3v24.84h-10.97V30.03h10.66v3.11c3.58-2.4,7.67-3.93,12.11-3.93,7,0,11.07,4.35,11.07,10.97v25.15Z"/>
  <path class="cls-1" d="M164.3,0c-5.55,9.41-3.14,17.92-8.57,23.35-4.36,4.36-8.4,4.22-13.16,4.22-1.65,0-4.87.14-6.21,1.12-.78-2.49-1.12-5.22-1.12-7.83,0-4.48,1.01-8.46,4.22-11.67,6.16-6.16,17.33-8.12,24.83-9.19Z"/>
  <path class="cls-2" d="M104.98,65.32h-10.97v-22.67c0-3.33-1.4-5.18-5.18-5.18-2.83,0-4.67,1.37-6.73,3v24.84h-10.97V30.03h10.66v3.11c3.58-2.4,7.67-3.93,12.11-3.93,7,0,11.08,4.35,11.08,10.97v25.15Z"/>
  <path class="cls-2" d="M68.87,30.03l-17.59,42.75c-2.7,6.57-8.13,11.39-15.53,11.39-3.7,0-5.66-.48-8.07-1.04l1.55-7.04c1.95.44,3.41.62,4.76.62,4.42,0,6.76-3.75,8.9-8.9l1.04-2.48-13.66-35.29h11.8l6.42,17.49c.77,2.11,1.21,4.27,1.55,5.79.4-1.54,1.18-4.08,1.97-6.11l6.62-17.18h10.24Z"/>
  <path class="cls-2" d="M30.12,54.04c0,7.68-7.1,11.9-15.52,11.9-5.49,0-9.92-.92-14.6-2.79l3-7.14c2.78,1.12,6.78,2.38,10.04,2.38,2.54,0,6.11-.31,6.11-3.42,0-1.45-.91-2.2-2.59-2.69-2.1-.62-5.32-1.17-7.45-1.76-4.47-1.23-8.18-3.58-8.18-10.14,0-7.28,6.21-11.8,14.7-11.8,5.61,0,9.17.74,12.32,1.66l-2.79,7.14c-1.39-.63-5.29-1.55-8.07-1.55-3.01,0-5.07,1.15-5.07,3,0,.91.57,2.08,2.17,2.59,1.72.55,4.45,1.05,6.73,1.55,4.68,1.03,9.21,3.71,9.21,11.07Z"/>
  <path class="cls-2" d="M283.46,65.32h-10.35v-2.79c-2.69,2.38-6.17,3.52-10.03,3.52-6.57,0-11.08-3.18-11.08-9.83,0-11.7,11.68-13.52,20.8-13.56v-.93c0-2.91-1.1-4.97-6.31-4.97-3.52,0-7.52,1.74-10.14,3.31l-2.69-6.52c4.66-2.53,10.45-4.35,15.94-4.35,8.43,0,13.87,4.03,13.87,11.07v25.05ZM272.8,55.9v-6.52c-5.08-.08-9.83.42-9.83,5.28,0,3,2.53,3.93,4.45,3.93,2.28,0,4.04-1.14,5.38-2.69Z"/>
  <path class="cls-2" d="M181.62,46.38c0,1.17-.04,2.37-.1,3.62h-23.39c.1,5.13,2.66,8.17,10.15,8.17,3.31,0,7.3-1.51,9-2.69l2.89,6.52c-4.83,2.62-10.04,4.04-15.84,4.04-10.96,0-17.8-7.06-17.8-18.32s8.96-18.53,18.63-18.53c12.05,0,16.46,7.04,16.46,17.18ZM170.34,42.97c.19-3.89-1.76-6.31-5.59-6.31s-5.9,2.71-6.52,6.31h12.11Z"/>
  <path class="cls-2" d="M146.57,69.67c0,10.29-10.26,15.06-20.39,15.11-8.91.04-17.49-2.52-17.49-11.07,0-4,3.54-6.68,5.7-8.07-1.19-.68-2.28-1.21-3.21-2.28-.98-1.12-1.76-2.75-1.76-5.49,0-3.45,3.04-6.64,6.73-8.69-2.05-1.07-4.76-2.81-4.76-8.59,0-7.52,7.13-11.49,16.46-11.49,7.92,0,15.52,1.9,15.52,11.18s-8.33,12.11-16.77,12.11c-1.57,0-2.97-.25-4.35-.52-.9.48-2.69,1.67-2.69,3,0,2.71,3.7,3.1,5.38,3.1h8.69c8.06,0,12.94,3.91,12.94,11.7ZM132.7,40.79c0-2.96-1.63-5.38-5.28-5.38-3.33,0-5.38,2.81-5.38,5.38,0,2.96,1.85,5.38,5.18,5.38,3.66,0,5.48-2.43,5.48-5.38ZM135.59,71.12c0-2.88-2.3-3.93-4.66-3.93h-9.62c-1.47.84-3.72,2.67-3.72,5.07,0,3.1,4.17,5.18,9.11,5.18s8.9-2.35,8.9-6.32Z"/>
  <path class="cls-2" d="M293.52,51.36c-3.9,0-7.06,3.16-7.06,7.06s3.16,7.06,7.06,7.06,7.06-3.16,7.06-7.06-3.16-7.06-7.06-7.06ZM293.52,64.11c-2.94,0-5.41-2.26-5.41-5.68s2.46-5.7,5.41-5.71c2.94,0,5.46,2.29,5.46,5.71s-2.52,5.68-5.46,5.68ZM296.77,56.7c0-1.15-.6-2.26-3.11-2.26h-2.96v7.87h1.66v-3.35h.83l1.91,3.35h1.66l-2.06-3.4c1.7-.21,2.06-1.04,2.06-2.21ZM292.36,57.7v-1.97h1.42c.96,0,1.33.44,1.33.97,0,.75-.49,1-1.03,1h-1.71Z"/>
</svg>